<svg xmlns="http://www.w3.org/2000/svg" preserveAspectRatio="xMidYMid" width="36.18" height="34.18" viewBox="0 0 18.09 17.09"><defs><style>.cls-1 { fill: #929292; fill-rule: evenodd; }</style></defs><path d="M14.377 17.101v-6.604c0-1.536-.537-2.584-1.877-2.584-1.024 0-1.633.707-1.877 1.389-.097.22-.146.585-.146.926v6.873h-3.705v-8.116c0-1.486-.048-2.754-.097-3.802h3.217l.171 1.633h.073c.487-.755 1.706-1.901 3.68-1.901 2.437 0 4.265 1.609 4.265 5.118v7.068h-3.704zm-12.452-13.38c-1.169 0-1.949-.829-1.925-1.852-.024-1.073.756-1.877 1.95-1.877s1.95.804 1.974 1.877c0 1.023-.78 1.852-1.999 1.852zm1.877 13.38h-3.705v-11.918h3.705v11.918z" class="cls-1"/></svg>