<svg xmlns="http://www.w3.org/2000/svg" preserveAspectRatio="xMidYMid" width="40.44" height="32.62" viewBox="0 0 20.22 16.31"><defs><style>.cls-1 { fill: #929292; fill-rule: evenodd; }</style></defs><path d="M.004 14.427s6.073 4.367 12.997-.119c5.805-3.935 5.125-10.22 5.125-10.22s1.239-.769 2.101-2.136c-1.275.648-2.368.636-2.368.636s1.397-.756 1.81-2.242c-1.701.959-2.636.982-2.636.982s-1.846-2.158-4.798-.923c-3.048 1.379-2.283 4.654-2.283 4.654s-4.871.179-8.563-4.282c-1.799 3.372 1.239 5.445 1.239 5.445s-.826.096-1.846-.48c.218 3.359 2.963 4.08 3.303 4.055-1.044.288-1.821.121-1.821.121s.825 2.782 3.838 2.782c-3.037 2.423-6.098 1.727-6.098 1.727z" class="cls-1"/></svg>